<svg width="423" height="162" viewBox="0 0 423 162" fill="none" xmlns="http://www.w3.org/2000/svg">
<rect width="423" height="162" fill="white"/>
<mask id="mask0_34_224" style="mask-type:alpha" maskUnits="userSpaceOnUse" x="58" y="44" width="57" height="74">
<path d="M80.942 44.75C82.5014 44.7501 83.9197 45.6566 84.5738 47.0723L114.377 111.572C115.601 114.223 113.665 117.25 110.746 117.25H104.558C102.999 117.25 101.581 116.343 100.927 114.928L86.4996 83.7051L72.0728 114.928C71.4187 116.343 70.0014 117.25 68.442 117.25H62.2545C59.3348 117.25 57.3989 114.223 58.6236 111.572L78.8033 67.9023C78.8676 67.7633 78.9395 67.6318 79.0152 67.5068L71.1236 50.4277C69.899 47.7772 71.8356 44.75 74.7554 44.75H80.942Z" fill="#D9D9D9"/>
</mask>
<g mask="url(#mask0_34_224)">
<rect x="42.0001" y="44.75" width="80" height="10.4286" fill="#F0BF5D"/>
<rect x="42.0001" y="55.1786" width="80" height="10.4286" fill="#D89852"/>
<rect x="42.0001" y="65.6071" width="80" height="10.4286" fill="#F0BF5D"/>
<rect x="42.0001" y="76.0357" width="80" height="10.4286" fill="#D89852"/>
<rect x="42.0001" y="86.4643" width="80" height="10.4286" fill="#F0BF5D"/>
<rect x="42.0001" y="96.8929" width="80" height="10.4286" fill="#D89852"/>
<rect x="42.0001" y="107.321" width="80" height="10.4286" fill="#F0BF5D"/>
</g>
<path d="M153.2 118.5V58.5272H133.032V44.1974H189.184V58.5272H169.016V118.5H153.2ZM210.68 120.092C207.071 120.092 203.851 119.402 201.021 118.022C198.19 116.642 195.961 114.679 194.333 112.131C192.706 109.548 191.892 106.47 191.892 102.896C191.892 99.8536 192.653 97.1468 194.174 94.7762C195.696 92.4056 197.996 90.4596 201.074 88.9382C204.187 87.3814 208.115 86.3376 212.856 85.8068C217.633 85.2407 223.258 85.2761 229.733 85.913L229.893 95.7846C226.036 95.1478 222.622 94.847 219.649 94.8824C216.713 94.9178 214.236 95.2185 212.219 95.7846C210.238 96.3507 208.734 97.1822 207.708 98.2791C206.682 99.3405 206.169 100.632 206.169 102.153C206.169 104.241 206.947 105.851 208.504 106.983C210.061 108.08 212.166 108.628 214.82 108.628C217.12 108.628 219.189 108.221 221.029 107.408C222.869 106.594 224.338 105.409 225.434 103.852C226.531 102.295 227.08 100.402 227.08 98.1729V85.3292C227.08 83.2416 226.637 81.4195 225.753 79.8626C224.904 78.2704 223.559 77.0498 221.719 76.2006C219.879 75.316 217.473 74.8738 214.501 74.8738C211.742 74.8738 208.982 75.2983 206.222 76.1475C203.497 76.9613 201.003 78.2174 198.739 79.9157L194.652 69.0888C198.084 66.8951 201.728 65.3029 205.585 64.3122C209.442 63.2861 213.21 62.773 216.89 62.773C221.914 62.773 226.301 63.5691 230.052 65.1613C233.802 66.7535 236.704 69.2126 238.756 72.5385C240.843 75.8291 241.887 80.0219 241.887 85.1169V118.5H228.407V112.609C226.637 115.015 224.214 116.872 221.135 118.182C218.057 119.455 214.572 120.092 210.68 120.092ZM256.25 118.5V64.896H271.747V118.5H256.25ZM263.999 56.4042C261.416 56.4042 259.187 55.6081 257.312 54.0159C255.436 52.3884 254.499 50.2301 254.499 47.541C254.499 44.8166 255.436 42.6583 257.312 41.0661C259.187 39.4385 261.416 38.6247 263.999 38.6247C266.582 38.6247 268.811 39.4385 270.686 41.0661C272.561 42.6583 273.499 44.8166 273.499 47.541C273.499 50.2301 272.561 52.3884 270.686 54.0159C268.811 55.6081 266.582 56.4042 263.999 56.4042ZM286.829 118.5V42.0745H302.327V118.5H286.829ZM336.834 120.039C332.057 120.039 327.652 119.42 323.618 118.182C319.585 116.908 316.135 115.174 313.269 112.98L318.311 102.153C321.106 104.064 324.131 105.568 327.387 106.665C330.642 107.726 333.773 108.257 336.781 108.257C339.753 108.257 342.035 107.815 343.627 106.93C345.255 106.01 346.068 104.701 346.068 103.003C346.068 101.481 345.343 100.367 343.892 99.659C342.477 98.916 339.717 98.1199 335.613 97.2707C328.536 95.9969 323.371 93.9978 320.116 91.2734C316.86 88.5136 315.233 84.7277 315.233 79.9157C315.233 76.519 316.17 73.5292 318.046 70.9463C319.956 68.3634 322.575 66.3643 325.9 64.949C329.226 63.4984 333.048 62.773 337.364 62.773C341.61 62.773 345.608 63.3568 349.359 64.5245C353.145 65.6567 356.382 67.2489 359.071 69.3011L354.189 80.1811C352.773 79.0489 351.146 78.0582 349.306 77.209C347.501 76.3598 345.591 75.7052 343.574 75.2453C341.593 74.7499 339.646 74.5022 337.736 74.5022C335.153 74.5022 333.065 74.9445 331.473 75.8291C329.881 76.6782 329.085 77.8812 329.085 79.4381C329.085 80.9949 329.81 82.1448 331.261 82.8878C332.712 83.6308 335.418 84.4446 339.381 85.3292C346.776 86.886 352.03 88.9559 355.144 91.5388C358.293 94.0863 359.867 97.6776 359.867 102.313C359.867 105.886 358.894 109 356.948 111.654C355.038 114.307 352.349 116.377 348.881 117.863C345.449 119.314 341.433 120.039 336.834 120.039Z" fill="#525252"/>
</svg>
